<?xml version="1.0" encoding="UTF-8" standalone="no"?>
<svg
   width="1008"
   height="158"
   viewBox="0 0 1008 158"
   fill="none"
   version="1.1"
   id="svg37"
   sodipodi:docname="plantnet api white.svg"
   inkscape:version="1.1.2 (0a00cf5339, 2022-02-04)"
   xmlns:inkscape="http://www.inkscape.org/namespaces/inkscape"
   xmlns:sodipodi="http://sodipodi.sourceforge.net/DTD/sodipodi-0.dtd"
   xmlns="http://www.w3.org/2000/svg"
   xmlns:svg="http://www.w3.org/2000/svg">
  <sodipodi:namedview
     id="namedview39"
     pagecolor="#ffffff"
     bordercolor="#666666"
     borderopacity="1.0"
     inkscape:pageshadow="2"
     inkscape:pageopacity="0.0"
     inkscape:pagecheckerboard="0"
     showgrid="false"
     inkscape:zoom="5.3412698"
     inkscape:cx="403.08767"
     inkscape:cy="112.61367"
     inkscape:window-width="2560"
     inkscape:window-height="1376"
     inkscape:window-x="0"
     inkscape:window-y="166"
     inkscape:window-maximized="1"
     inkscape:current-layer="g30" />
  <g
     clip-path="url(#clip0_3028_2679)"
     id="g30">
    <path
       d="M247.22 129.07C246.144 129.065 245.114 128.636 244.352 127.876C243.59 127.116 243.158 126.086 243.15 125.01V42.2902C243.156 41.2124 243.586 40.1802 244.348 39.4181C245.11 38.656 246.143 38.2255 247.22 38.2202H269.67C289.62 38.2202 300.13 46.4802 300.13 65.7902C300.13 83.6402 292.91 94.6802 271.24 94.6802H259V125C258.993 126.076 258.561 127.106 257.799 127.866C257.037 128.626 256.006 129.055 254.93 129.06L247.22 129.07ZM259 81.5402H270.29C279.35 81.5402 283.56 78.1302 283.56 66.8402C283.56 55.1502 279.61 51.6102 270.42 51.6102H259V81.5402Z"
       fill="#362D31"
       id="path2"
       style="fill:#e7e7e7;fill-opacity:1" />
    <path
       d="M325.61 130.51C314.32 130.51 311.44 124.87 311.44 111.87V37.5602C311.446 36.4824 311.876 35.4503 312.638 34.6881C313.4 33.926 314.433 33.4955 315.51 33.4902H322.33C323.408 33.4955 324.44 33.926 325.203 34.6881C325.965 35.4503 326.395 36.4824 326.4 37.5602V113.71C326.4 116.6 327.32 118.04 329.16 118.56C331.78 119.36 333.49 120.14 333.88 122.77L334.28 125.52C334.366 126.013 334.352 126.518 334.238 127.005C334.125 127.492 333.916 127.951 333.622 128.356C333.328 128.76 332.957 129.102 332.529 129.36C332.101 129.619 331.625 129.789 331.13 129.86C329.319 130.276 327.469 130.494 325.61 130.51Z"
       fill="#362D31"
       id="path4"
       style="fill:#e7e7e7;fill-opacity:1" />
    <path
       d="M388.12 151.92C358.85 151.92 341.52 135.37 341.52 102.68C341.52 69.9902 361.52 45.1802 394.69 45.1802C424.1 45.1802 440.38 63.0302 440.38 91.6502C440.38 118.56 429.88 130.51 414.38 130.51C403.21 130.51 398.62 125.13 397.05 117.38C392.32 123.16 386.15 128.54 378.27 128.54C370.79 128.54 365.27 123.03 365.27 110.16C365.353 105.393 365.933 100.647 367 96.0002C371.07 76.3102 378.95 69.2202 390.77 69.2202C396.94 69.2202 401.13 72.7602 403.37 74.9902L403.5 74.4702C403.718 73.3424 404.323 72.326 405.21 71.5959C406.097 70.8659 407.211 70.4678 408.36 70.4702H413.61C414.103 70.4729 414.591 70.5845 415.037 70.797C415.483 71.0095 415.876 71.3177 416.189 71.6996C416.502 72.0816 416.728 72.5279 416.849 73.0067C416.97 73.4856 416.984 73.9853 416.89 74.4702L409.53 109C409.184 110.462 409.006 111.958 409 113.46C409 118.19 411.37 120.16 414.51 120.16C422.51 120.16 427.78 112.42 427.78 91.6702C427.78 67.5202 418.59 55.6702 394.17 55.6702C367.65 55.6702 354.51 75.1002 354.51 102.67C354.51 130.77 365.42 141.27 387.99 141.27C392.965 141.34 397.923 140.666 402.7 139.27C403.726 138.956 404.835 139.053 405.791 139.542C406.746 140.032 407.474 140.874 407.82 141.89L408.48 143.99C408.657 144.49 408.734 145.021 408.705 145.551C408.675 146.081 408.541 146.599 408.309 147.077C408.077 147.554 407.753 147.981 407.355 148.332C406.956 148.682 406.492 148.95 405.99 149.12C400.219 150.994 394.187 151.939 388.12 151.92V151.92ZM383.4 117.78C387.86 117.78 392.07 113.97 395.75 110.29L401.52 83.0002C399.52 81.3002 396.93 79.1902 393.12 79.1902C386.55 79.1902 384.06 83.1302 381.04 97.5702C379.92 102.046 379.25 106.622 379.04 111.23C379.07 116.07 380.65 117.78 383.4 117.78V117.78Z"
       fill="#362D31"
       id="path6"
       style="fill:#e7e7e7;fill-opacity:1" />
    <path
       d="M456.41 129.07C455.334 129.065 454.303 128.636 453.541 127.876C452.779 127.116 452.348 126.086 452.34 125.01V66.7102C452.345 65.6324 452.776 64.6002 453.538 63.8381C454.3 63.0759 455.332 62.6454 456.41 62.6402H460.22C461.37 62.6513 462.485 63.0429 463.389 63.7538C464.294 64.4647 464.937 65.455 465.22 66.5702L465.87 69.8502C471.26 64.6102 477.3 60.9302 485.44 60.9302C495.94 60.9302 502.11 65.7902 502.11 78.2602V125C502.105 126.077 501.674 127.108 500.911 127.869C500.149 128.629 499.117 129.058 498.04 129.06H491.2C490.124 129.055 489.093 128.626 488.331 127.866C487.569 127.106 487.138 126.076 487.13 125V82.0702C487.13 75.0702 484.9 73.4002 480.04 73.4002C475.18 73.4002 471.12 75.9002 467.31 79.3102V125C467.302 126.076 466.87 127.106 466.108 127.866C465.347 128.626 464.316 129.055 463.24 129.06L456.41 129.07Z"
       fill="#362D31"
       id="path8"
       style="fill:#e7e7e7;fill-opacity:1" />
    <path
       d="M515.51 74.1998C514.432 74.192 513.4 73.7592 512.638 72.9955C511.876 72.2318 511.446 71.1986 511.44 70.1198V66.7098C511.446 65.632 511.876 64.5998 512.638 63.8377C513.4 63.0756 514.433 62.6451 515.51 62.6398H518.66V49.9998C518.656 48.8607 519.046 47.7551 519.764 46.8709C520.482 45.9867 521.484 45.3786 522.6 45.1498L529.6 43.8298C530.082 43.7472 530.575 43.7702 531.046 43.897C531.518 44.0239 531.956 44.2516 532.331 44.5645C532.705 44.8774 533.008 45.2679 533.216 45.7092C533.425 46.1504 533.536 46.6317 533.54 47.1198V62.6398H542.46C543.539 62.6451 544.572 63.0752 545.336 63.8371C546.1 64.5989 546.533 65.6311 546.54 66.7098V70.1198C546.535 71.2003 546.104 72.235 545.34 72.999C544.576 73.763 543.541 74.1946 542.46 74.1998H533.5V112.66C533.5 117.66 535.2 119.22 538.62 119.22C539.817 119.193 541.006 119.019 542.16 118.7C542.557 118.578 542.975 118.54 543.387 118.588C543.799 118.637 544.197 118.77 544.555 118.979C544.913 119.189 545.223 119.47 545.467 119.806C545.711 120.142 545.882 120.524 545.97 120.93L546.76 124.35C547.014 125.442 546.845 126.589 546.289 127.563C545.733 128.536 544.83 129.264 543.76 129.6C541.257 130.39 538.646 130.788 536.02 130.78C525.78 130.78 518.69 126.96 518.69 115.42V74.1998H515.51Z"
       fill="#362D31"
       id="path10"
       style="fill:#e7e7e7;fill-opacity:1" />
    <path
       d="M567.05 129.07C566.286 129.062 565.556 128.755 565.015 128.215C564.475 127.674 564.168 126.944 564.16 126.18V41.7599C564.171 40.9976 564.479 40.2696 565.019 39.7314C565.559 39.1933 566.288 38.8876 567.05 38.8799H570.6C571.472 38.896 572.323 39.1482 573.062 39.6095C573.802 40.0709 574.402 40.7242 574.8 41.4999L603.16 99.6599C606.32 105.922 608.995 112.418 611.16 119.09H611.42C610.681 111.804 610.347 104.483 610.42 97.1599V41.7599C610.428 40.9968 610.735 40.2673 611.276 39.7286C611.817 39.1899 612.547 38.8851 613.31 38.8799H615.31C616.072 38.8877 616.8 39.1936 617.338 39.732C617.876 40.2705 618.182 40.9985 618.19 41.7599V126.18C618.185 126.943 617.88 127.674 617.341 128.214C616.803 128.755 616.073 129.062 615.31 129.07H611.89C611.019 129.053 610.168 128.8 609.429 128.339C608.69 127.878 608.089 127.225 607.69 126.45L580.39 70.9099C576.773 63.8592 573.72 56.5329 571.26 48.9999H571C571.728 57.1186 572.035 65.2695 571.92 73.4199V126.2C571.915 126.965 571.609 127.697 571.068 128.238C570.527 128.778 569.795 129.085 569.03 129.09L567.05 129.07Z"
       fill="#8EB533"
       id="path12" />
    <path
       d="M643.33 98.87C643.59 117.87 648.71 123.69 660.52 123.69C665.242 123.787 669.877 122.41 673.78 119.75C674.432 119.3 675.231 119.116 676.014 119.237C676.797 119.358 677.504 119.774 677.99 120.4L678.77 121.32C678.997 121.618 679.16 121.959 679.25 122.322C679.34 122.686 679.354 123.064 679.292 123.433C679.231 123.802 679.094 124.155 678.89 124.469C678.687 124.783 678.421 125.052 678.11 125.26C673.39 128.54 668 130.38 660.52 130.38C645.52 130.38 635.05 121.98 635.05 97.82C635.05 73.93 645.16 65 659.05 65C673.62 65 681.5 74.2 681.5 95.59V97.3C681.511 97.4982 681.482 97.6965 681.415 97.8833C681.348 98.0701 681.244 98.2417 681.11 98.3879C680.976 98.5342 680.814 98.6521 680.634 98.7349C680.453 98.8177 680.258 98.8636 680.06 98.87H643.33ZM643.46 92.71H673.39C673.39 76.71 668.66 71.43 658.95 71.43C650.15 71.43 644.37 76.3 643.46 92.71V92.71Z"
       fill="#8EB533"
       id="path14" />
    <path
       d="M698.59 72.7501H693.86C693.095 72.7397 692.364 72.4306 691.824 71.8887C691.284 71.3468 690.977 70.6151 690.97 69.8501V69.2101C690.977 68.4451 691.284 67.7135 691.824 67.1716C692.364 66.6297 693.095 66.3205 693.86 66.3101H698.59V52.6601C698.591 51.8474 698.864 51.0583 699.363 50.4174C699.863 49.7764 700.562 49.32 701.35 49.1201L703.58 48.5901C703.911 48.5329 704.25 48.547 704.575 48.6315C704.9 48.716 705.204 48.8689 705.465 49.08C705.726 49.2911 705.939 49.5555 706.09 49.8556C706.241 50.1557 706.326 50.4845 706.34 50.8201V66.3101H716.57C717.336 66.318 718.07 66.626 718.612 67.1682C719.154 67.7103 719.462 68.4434 719.47 69.2101V69.8501C719.462 70.6168 719.154 71.3499 718.612 71.8921C718.07 72.4343 717.336 72.7423 716.57 72.7501H706.34V118.17C706.34 121.98 708.04 123.95 711.59 123.95C713.199 123.991 714.801 123.723 716.31 123.16C717.043 122.949 717.83 123.021 718.513 123.362C719.196 123.703 719.727 124.287 720 125C720.158 125.379 720.238 125.785 720.238 126.195C720.237 126.605 720.154 127.011 719.995 127.388C719.836 127.766 719.603 128.109 719.311 128.396C719.018 128.683 718.671 128.909 718.29 129.06C716.036 129.96 713.626 130.405 711.2 130.37C704.12 130.37 698.6 127.09 698.6 118.55L698.59 72.7501Z"
       fill="#8EB533"
       id="path16" />
    <path
       d="M216 103.7C173.13 80.4398 127.09 100.88 118.64 137.99C118.64 137.99 194 127.08 216 103.7"
       fill="#8EB533"
       id="path18" />
    <path
       d="M144 17.5498C130.61 22.8898 116.89 40.8298 109.72 64.3898C103.54 84.6998 103.72 104.2 109.11 116.81C111.52 108.81 113.9 102.04 117.39 95.4398C118.89 92.5998 121.12 93.9598 121.06 96.2198C121.01 98.1398 120.56 101.78 118.86 109.79C118.28 112.47 117.56 115.99 116.76 120.01C128.54 112.82 140 96.3998 146.33 75.5598C153.51 51.9798 152.11 29.4398 143.95 17.5598"
       fill="#8EB533"
       id="path20" />
    <path
       d="M102.68 61.6902C103.17 60.0302 103.68 58.4202 104.29 56.8102C89.1596 39.0002 70.7196 28.4002 56.8996 28.4602C53.7796 42.5202 60.8996 63.9602 76.3496 83.1502C82.8433 91.3183 90.5492 98.4442 99.1996 104.28C96.9996 92.3802 97.9296 77.2702 102.68 61.6902Z"
       fill="#8EB533"
       id="path22" />
    <path
       d="M14 103.7C56.87 80.44 102.91 100.88 111.36 138C111.36 138 36 127.08 14 103.7Z"
       fill="#8EB533"
       id="path24" />
    <rect
       x="759"
       y="15"
       width="245"
       height="137"
       rx="10"
       fill="#8EB533"
       id="rect26" />
    <path
       d="M778.087 131L802.453 35.37H821.055L845.421 131H831.142L825.378 106.765H798.261L792.497 131H778.087ZM800.881 95.106H822.627L816.077 67.465C814.941 62.5743 813.981 58.3387 813.195 54.758C812.496 51.09 812.016 48.601 811.754 47.291C811.492 48.601 811.011 51.09 810.313 54.758C809.614 58.3387 808.653 62.5307 807.431 67.334L800.881 95.106ZM855.456 131V35.37H886.765C892.966 35.37 898.337 36.549 902.878 38.907C907.507 41.265 911.044 44.6273 913.489 48.994C916.022 53.2733 917.288 58.3387 917.288 64.19C917.288 69.954 916.022 75.0193 913.489 79.386C910.957 83.7527 907.42 87.115 902.878 89.473C898.337 91.831 892.966 93.01 886.765 93.01H869.604V131H855.456ZM869.604 80.303H886.765C891.656 80.303 895.542 78.862 898.424 75.98C901.394 73.0107 902.878 69.0807 902.878 64.19C902.878 59.212 901.394 55.282 898.424 52.4C895.542 49.518 891.656 48.077 886.765 48.077H869.604V80.303ZM929.289 131V118.424H948.546V47.946H929.289V35.37H982.213V47.946H962.956V118.424H982.213V131H929.289Z"
       fill="white"
       id="path28" />
  </g>
  <defs
     id="defs35">
    <clipPath
       id="clip0_3028_2679">
      <rect
         width="1008"
         height="158"
         fill="white"
         id="rect32" />
    </clipPath>
  </defs>
</svg>
